<?xml version="1.0" encoding="utf-8"?>
<!-- Generator: Adobe Illustrator 25.2.0, SVG Export Plug-In . SVG Version: 6.00 Build 0)  -->
<svg version="1.1" xmlns="http://www.w3.org/2000/svg" xmlns:xlink="http://www.w3.org/1999/xlink" x="0px" y="0px"
	 viewBox="0 0 243.4 46.1" style="enable-background:new 0 0 243.4 46.1;" xml:space="preserve">
<style type="text/css">
	.st0{fill-rule:evenodd;clip-rule:evenodd;}
</style>
<g id="Layer_1">
	<path class="st0" d="M65.1,4.3v31.4h-4.7V4.3H65.1z M75.9,22.2v13.4h-4.6V12.1h4.6v2.2c1.1-1.6,3-2.7,5.4-2.7c1.9,0,3,0.4,4,1
		L84.1,17c-1-0.5-2-0.9-3.5-0.9C77.6,16.2,75.9,18.2,75.9,22.2z M96.6,36.1c6,0,10.6-4.6,10.6-12.4c0-7.3-4.5-12.1-10.5-12.1
		c-5.9,0-10.5,4.6-10.5,12.3C86.3,31.3,90.7,36.1,96.6,36.1z M90.9,23.8c0,5.2,2.4,8,5.9,8c3.5,0,5.8-3.5,5.8-7.8
		c0-4.8-2.3-7.9-6-7.9C93.1,16,90.9,19.1,90.9,23.8z M116,35.6V21.9c0-3.8,1.7-6,4.8-6c3,0,4.8,1.7,4.8,6.5v13.3h4.6V22.2
		c0-6.9-2.9-10.5-8.4-10.5c-2.4,0-4.7,1-5.9,2.7v-2.2h-4.6v23.5H116z M140,41.9l-4.6,2.4V12.1h4.6v2.2c1.7-1.6,3.7-2.7,6.1-2.7
		c5.1,0,9,3.7,9,12.6c0,8.1-4.4,11.9-9.3,11.9c-2.4,0-4.6-1.3-5.9-2.7V41.9z M145.4,31.9c-2.3,0-4.5-1.7-5.5-3.1v-9.9
		c1.2-1.5,3.1-3,5.3-3c3.4,0,5.3,2.6,5.3,8.5C150.5,29.4,148.7,31.9,145.4,31.9z M172.5,33.3c-1.6,1.6-3.9,2.8-6.4,2.8
		c-3.8,0-8.1-2.2-8.1-7.9c0-5.2,4-7.6,9.3-7.6c2.2,0,3.9,0.3,5.2,0.9v-1.7c0-2.6-1.6-4-4.4-4c-2.4,0-4.3,0.4-6.1,1.5l-1.8-3.5
		c2.2-1.4,4.7-2.1,8.1-2.1c5.2,0,8.8,2.6,8.8,7.9v16.1h-4.5V33.3z M166.8,32c-3,0-4.5-1.6-4.5-3.9c0-2.2,1.9-3.5,4.8-3.5
		c2.5,0,4.1,0.4,5.4,1V29C171.4,30.5,169.3,32,166.8,32z M186.7,41.9l-4.6,2.4V12.1h4.6v2.2c1.7-1.6,3.7-2.7,6.1-2.7
		c5.1,0,9,3.7,9,12.6c0,8.1-4.4,11.9-9.3,11.9c-2.4,0-4.6-1.3-5.9-2.7V41.9z M192.2,31.9c-2.3,0-4.5-1.7-5.5-3.1v-9.9
		c1.2-1.5,3.1-3,5.3-3c3.4,0,5.3,2.6,5.3,8.5C197.3,29.4,195.5,31.9,192.2,31.9z M223.3,33.1c-2.1,2-4.5,3.1-8.1,3.1
		c-5.5,0-10.2-4.4-10.2-12.2c0-8,4.2-12.3,10.3-12.3c6.7,0,9.9,5.4,9.9,11.8c0,0.7-0.1,1.4-0.1,1.8v0v0c0,0.1,0,0.2,0,0.3h-15.5
		c0.5,4.5,3,6.5,5.9,6.5c2,0,3.5-0.7,5.1-1.9L223.3,33.1z M220.6,21.7h-10.9c0.4-3.8,2.3-5.9,5.4-5.9
		C218.8,15.8,220.3,18.5,220.6,21.7z M234.1,22.2v13.4h-4.6V12.1h4.6v2.2c1.1-1.6,3-2.7,5.4-2.7c1.9,0,3,0.4,4,1l-1.2,4.4
		c-1-0.5-2-0.9-3.5-0.9C235.8,16.2,234.1,18.2,234.1,22.2z"/>
</g>
<g id="Layer_2">
	<g>
		<path class="st0" d="M42.4,8l-8.2,31.3c-0.1,0.3-0.3,0.4-0.6,0.4L6,39.7c-0.4,0-0.7-0.4-0.6-0.8l0.2-0.9c0.1-0.3,0.3-0.5,0.6-0.5
			h25.3c0.5,0,1-0.3,1.2-0.9l0.3-0.9c0.2-0.5-0.2-0.9-0.7-0.9c-1.7,0-4.9,0.1-6.7-0.3c-2.4-0.5-2.6-2.4-2-5.1
			c0.5-2.7,1.2-4.4,2.8-11.3c0.1-0.6,0.7-3.1,3.1-4.8c1.9-1.4,3.9-1.5,4.6-1.5h4.4c0.3,0,0.6-0.2,0.7-0.6l0.4-1.8
			c0.1-0.4-0.3-0.9-0.7-0.9H14.2c-0.2,0-0.4-0.2-0.3-0.4l0.3-1.2c0.1-0.2,0.2-0.3,0.4-0.3h26.8C42,6.7,42.5,7.3,42.4,8z M45.7,2.7
			H14c-0.6,0-1.2,0.4-1.3,1L11,9.4c-0.2,0.6,0.3,1.1,0.8,1.1c2.5,0,8.1,0.3,8.1,4c0,4.7-4.1,16.2-4.1,16.2s-1.2,4-7,4H4.7
			c-0.4,0-0.7,0.3-0.8,0.7l-1.4,6.3c-0.1,0.5,0.3,1.1,0.8,1.1h31.3c0.6,0,1.2-0.4,1.4-1l10.5-38C46.5,3.2,46.1,2.7,45.7,2.7z"/>
	</g>
</g>
</svg>
