<svg id="Group_13" data-name="Group 13" xmlns="http://www.w3.org/2000/svg" width="76" height="76" viewBox="0 0 76 76">
  <circle id="Oval" cx="38" cy="38" r="38"/>
  <g id="Group_4" data-name="Group 4" transform="translate(16 15)">
    <path id="Fill_1" data-name="Fill 1" d="M0,10.156H9.375V0H0Z" transform="translate(17.313 36.781)" fill="#04c5fe"/>
    <path id="Fill_2" data-name="Fill 2" d="M22.257,31.25A25.274,25.274,0,0,1,.119,19.166a.792.792,0,0,1,0-.833,28.82,28.82,0,0,1,4.712-5.765L.122,8.4,1.157,7.229l4.857,4.3a22.6,22.6,0,0,1,5.5-3.342L9.425,2.619l1.463-.549L12.97,7.625a25.621,25.621,0,0,1,8.123-1.364V0h1.562V6.283A26.9,26.9,0,0,1,30.583,7.76l2.285-5.705,1.452.58L32.042,8.322a24.408,24.408,0,0,1,6.031,3.646l4.471-4.7,1.13,1.078L39.247,13a26.713,26.713,0,0,1,4.382,5.333.786.786,0,0,1,0,.832C38.588,27.184,31.4,31.25,22.257,31.25ZM27.543,8.5h0A11.707,11.707,0,0,1,27,29.277a21.084,21.084,0,0,0,8.417-3.463,25.356,25.356,0,0,0,6.623-7.063A23.434,23.434,0,0,0,27.543,8.5ZM16.748,8.222a21.093,21.093,0,0,0-8.417,3.463A25.339,25.339,0,0,0,1.707,18.75,23.439,23.439,0,0,0,16.205,29a11.709,11.709,0,0,1,.543-20.782Zm5.907,1.934v1.562a6.268,6.268,0,0,1,6.25,6.25h1.563a7.823,7.823,0,0,0-7.813-7.813Z" transform="translate(0.126 0.063)" fill="#fff"/>
    <path id="Fill_3" data-name="Fill 3" d="M2.727.137C1.8.137.895.082,0,0V4.043H4.688V.066c-.645.043-1.295.07-1.961.07Z" transform="translate(19.656 31.957)" fill="#fff"/>
  </g>
  <circle id="Oval-2" data-name="Oval" cx="9" cy="9" r="9" transform="translate(29 25)"/>
</svg>
